<svg xmlns="http://www.w3.org/2000/svg" xmlns:xlink="http://www.w3.org/1999/xlink" width="450" zoomAndPan="magnify" viewBox="0 0 337.5 187.499995" height="250" preserveAspectRatio="xMidYMid meet" version="1.0"><defs><g/><clipPath id="b5086fa266"><path d="M 0.199219 0 L 194 0 L 194 187 L 0.199219 187 Z M 0.199219 0 " clip-rule="nonzero"/></clipPath><clipPath id="2c5701186e"><path d="M 176 0 L 336.800781 0 L 336.800781 168 L 176 168 Z M 176 0 " clip-rule="nonzero"/></clipPath><clipPath id="70821ee667"><path d="M 21 81 L 150 81 L 150 187 L 21 187 Z M 21 81 " clip-rule="nonzero"/></clipPath><clipPath id="1efd4b964e"><path d="M 66 77 L 193 77 L 193 187 L 66 187 Z M 66 77 " clip-rule="nonzero"/></clipPath><clipPath id="5abaa44797"><path d="M 111 76 L 236 76 L 236 187 L 111 187 Z M 111 76 " clip-rule="nonzero"/></clipPath><clipPath id="b43ea23745"><path d="M 154 76 L 280 76 L 280 187 L 154 187 Z M 154 76 " clip-rule="nonzero"/></clipPath><clipPath id="9abcebf93e"><path d="M 197 78 L 324 78 L 324 187 L 197 187 Z M 197 78 " clip-rule="nonzero"/></clipPath><clipPath id="d98e68921e"><path d="M 238 81 L 336.800781 81 L 336.800781 187 L 238 187 Z M 238 81 " clip-rule="nonzero"/></clipPath></defs><g clip-path="url(#b5086fa266)"><path stroke-linecap="butt" transform="matrix(2.574206, 0, 0, 2.574206, 7.000514, -38.143342)" fill="none" stroke-linejoin="miter" d="M 0.533946 33.776643 L 14.40048 33.776643 L 14.40048 37.448892 C 14.40048 38.629475 14.682727 39.567264 15.245705 40.260743 C 15.819304 40.946634 16.521887 41.406424 17.354972 41.64163 C 18.197161 41.875318 19.043903 41.867731 19.895197 41.615833 C 20.744974 41.363935 21.452109 40.881383 22.016604 40.169695 C 22.590203 39.458007 22.875485 38.517183 22.875485 37.344188 L 22.875485 17.671858 L 36.74202 17.671858 L 36.74202 37.514143 C 36.74202 41.133281 35.99543 44.341188 34.503768 47.136347 C 33.010589 49.9224 30.901322 52.109058 28.175967 53.697836 C 25.458199 55.277511 22.289746 56.068106 18.670608 56.068106 C 15.077267 56.068106 11.917918 55.364006 9.192563 53.958839 C 6.474795 52.552155 4.353388 50.456545 2.825308 47.668974 C 1.297227 44.875334 0.533946 41.415529 0.533946 37.292594 Z M 0.533946 33.776643 " stroke="#333333" stroke-width="6.333329" stroke-opacity="1" stroke-miterlimit="4"/></g><g fill="#ffffff" fill-opacity="1"><g transform="translate(7.000514, 103.437974)"><g><path d="M 1.375 -54.640625 L 37.0625 -54.640625 L 37.0625 -45.171875 C 37.0625 -42.148438 37.789062 -39.742188 39.25 -37.953125 C 40.71875 -36.171875 42.523438 -34.984375 44.671875 -34.390625 C 46.828125 -33.796875 49.003906 -33.816406 51.203125 -34.453125 C 53.398438 -35.097656 55.226562 -36.332031 56.6875 -38.15625 C 58.15625 -39.988281 58.890625 -42.414062 58.890625 -45.4375 L 58.890625 -96.09375 L 94.59375 -96.09375 L 94.59375 -45.03125 C 94.59375 -35.695312 92.671875 -27.4375 88.828125 -20.25 C 84.984375 -13.0625 79.554688 -7.429688 72.546875 -3.359375 C 65.546875 0.710938 57.378906 2.75 48.046875 2.75 C 38.804688 2.75 30.679688 0.941406 23.671875 -2.671875 C 16.671875 -6.285156 11.203125 -11.6875 7.265625 -18.875 C 3.335938 -26.0625 1.375 -34.960938 1.375 -45.578125 Z M 1.375 -54.640625 "/></g></g></g><path stroke-linecap="butt" transform="matrix(0.84228, 0, 0, 0.84228, 84.642379, -27.803721)" fill="none" stroke-linejoin="miter" d="M 46.63936 126.376431 C 40.383091 126.376431 34.502475 125.226279 28.997514 122.925975 C 23.515742 120.630309 18.697162 117.49058 14.541774 113.511425 C 10.391025 109.51372 7.126077 104.852822 4.75157 99.519457 C 2.377063 94.172178 1.189809 88.481708 1.189809 82.457324 C 1.189809 76.372649 2.377063 70.686818 4.75157 65.395191 C 7.126077 60.085014 10.391025 55.428754 14.541774 51.431049 C 18.697162 47.433343 23.515742 44.293614 28.997514 42.016499 C 34.502475 39.716195 40.383091 38.566043 46.63936 38.566043 C 52.881717 38.566043 58.748419 39.716195 64.25338 42.016499 C 69.758341 44.293614 74.586197 47.433343 78.741584 51.431049 C 82.892334 55.428754 86.124817 60.085014 88.443672 65.395191 C 90.781078 70.686818 91.94978 76.372649 91.94978 82.457324 C 91.94978 88.481708 90.781078 94.172178 88.443672 99.519457 C 86.124817 104.852822 82.892334 109.51372 78.741584 113.511425 C 74.586197 117.49058 69.758341 120.630309 64.25338 122.925975 C 58.748419 125.226279 52.881717 126.376431 46.63936 126.376431 Z M 34.762187 82.457324 C 34.762187 85.70372 35.912339 88.472433 38.212643 90.772737 C 40.508309 93.068403 43.281659 94.218555 46.523418 94.218555 C 49.769814 94.218555 52.55244 93.068403 54.866657 90.772737 C 57.204062 88.472433 58.372765 85.70372 58.372765 82.457324 C 58.372765 79.210927 57.204062 76.43294 54.866657 74.114085 C 52.55244 71.776679 49.769814 70.607977 46.523418 70.607977 C 43.281659 70.607977 40.508309 71.776679 38.212643 74.114085 C 35.912339 76.43294 34.762187 79.210927 34.762187 82.457324 Z M 34.762187 82.457324 " stroke="#333333" stroke-width="14.091706" stroke-opacity="1" stroke-miterlimit="4"/><g fill="#ffffff" fill-opacity="1"><g transform="translate(84.642379, 76.639005)"><g><path d="M 39.28125 2 C 34.007812 2 29.054688 1.035156 24.421875 -0.890625 C 19.796875 -2.828125 15.734375 -5.476562 12.234375 -8.84375 C 8.742188 -12.207031 6 -16.140625 4 -20.640625 C 2 -25.140625 1 -29.921875 1 -34.984375 C 1 -40.109375 2 -44.898438 4 -49.359375 C 6 -53.828125 8.742188 -57.742188 12.234375 -61.109375 C 15.734375 -64.472656 19.796875 -67.117188 24.421875 -69.046875 C 29.054688 -70.984375 34.007812 -71.953125 39.28125 -71.953125 C 44.539062 -71.953125 49.484375 -70.984375 54.109375 -69.046875 C 58.742188 -67.117188 62.8125 -64.472656 66.3125 -61.109375 C 69.8125 -57.742188 72.539062 -53.828125 74.5 -49.359375 C 76.46875 -44.898438 77.453125 -40.109375 77.453125 -34.984375 C 77.453125 -29.921875 76.46875 -25.140625 74.5 -20.640625 C 72.539062 -16.140625 69.8125 -12.207031 66.3125 -8.84375 C 62.8125 -5.476562 58.742188 -2.828125 54.109375 -0.890625 C 49.484375 1.035156 44.539062 2 39.28125 2 Z M 29.28125 -34.984375 C 29.28125 -32.242188 30.242188 -29.90625 32.171875 -27.96875 C 34.109375 -26.039062 36.441406 -25.078125 39.171875 -25.078125 C 41.898438 -25.078125 44.25 -26.039062 46.21875 -27.96875 C 48.1875 -29.90625 49.171875 -32.242188 49.171875 -34.984375 C 49.171875 -37.710938 48.1875 -40.054688 46.21875 -42.015625 C 44.25 -43.984375 41.898438 -44.96875 39.171875 -44.96875 C 36.441406 -44.96875 34.109375 -43.984375 32.171875 -42.015625 C 30.242188 -40.054688 29.28125 -37.710938 29.28125 -34.984375 Z M 29.28125 -34.984375 "/></g></g></g><path stroke-linecap="butt" transform="matrix(0.84228, 0, 0, 0.84228, 157.234662, -9.3722)" fill="none" stroke-linejoin="miter" d="M 90.532382 123.999747 L 53.504911 123.999747 L 32.157535 91.262157 L 32.157535 123.999747 L 1.302855 123.999747 L 1.302855 40.943011 L 32.157535 40.943011 L 32.157535 72.493348 L 50.782576 40.943011 L 87.689467 40.943011 L 61.704381 82.455147 Z M 90.532382 123.999747 " stroke="#333333" stroke-width="14.091706" stroke-opacity="1" stroke-miterlimit="4"/><g fill="#ffffff" fill-opacity="1"><g transform="translate(157.234662, 95.070525)"><g><path d="M 76.25 0 L 45.078125 0 L 27.078125 -27.578125 L 27.078125 0 L 1.09375 0 L 1.09375 -69.953125 L 27.078125 -69.953125 L 27.078125 -43.375 L 42.765625 -69.953125 L 73.859375 -69.953125 L 51.96875 -34.984375 Z M 76.25 0 "/></g></g></g><g clip-path="url(#2c5701186e)"><path stroke-linecap="butt" transform="matrix(0.84228, 0, 0, 0.84228, 243.644551, -4.007129)" fill="none" stroke-linejoin="miter" d="M 69.528514 40.945524 L 102.641758 124.00226 L 69.528514 124.00226 L 50.898836 72.37528 L 42.008347 96.361513 L 57.303512 96.361513 L 67.26995 124.00226 L -0.231909 124.00226 L 32.273795 40.945524 Z M 69.528514 40.945524 " stroke="#333333" stroke-width="14.091706" stroke-opacity="1" stroke-miterlimit="4"/></g><g fill="#ffffff" fill-opacity="1"><g transform="translate(243.644551, 100.435596)"><g><path d="M 58.5625 -69.953125 L 86.453125 0 L 58.5625 0 L 42.875 -43.46875 L 35.375 -23.28125 L 48.265625 -23.28125 L 56.671875 0 L -0.203125 0 L 27.1875 -69.953125 Z M 58.5625 -69.953125 "/></g></g></g><path stroke-linecap="butt" transform="matrix(0.84228, 0, 0, 0.84228, 212.494792, 26.610954)" fill="none" stroke-linejoin="miter" d="M 39.890483 79.845566 L 39.890483 76.849606 L 32.938557 76.849606 L 32.938557 61.146323 L 60.894668 61.146323 L 60.894668 86.880971 C 60.894668 89.798091 60.319592 92.200424 59.174078 94.083334 C 58.033202 95.966244 56.572323 97.348281 54.800718 98.229446 C 53.029113 99.124524 51.197218 99.59757 49.314308 99.653223 L 12.439881 99.653223 C 10.496681 99.653223 8.683337 99.124524 6.995211 98.062489 C 5.307085 97.014366 3.943598 95.632329 2.909389 93.916376 C 1.893731 92.200424 1.383583 90.368529 1.383583 88.429966 L 1.383583 39.451118 C 1.383583 37.271395 1.879817 35.286455 2.867649 33.482387 C 3.874032 31.682955 5.260707 30.231352 7.03695 29.127577 C 8.808555 28.00989 10.839872 27.453364 13.1309 27.453364 L 49.564744 27.453364 C 51.855773 27.453364 53.84535 28.00989 55.533476 29.127577 C 57.221603 30.231352 58.534074 31.627303 59.470892 33.315429 C 60.416984 35.003555 60.894668 36.738058 60.894668 38.509663 L 60.894668 57.983405 L 32.938557 57.983405 L 32.938557 46.12942 L 29.59013 46.12942 L 29.59013 79.845566 Z M 39.890483 79.845566 " stroke="#333333" stroke-width="10.185912" stroke-opacity="1" stroke-miterlimit="4"/><g fill="#ffffff" fill-opacity="1"><g transform="translate(212.494792, 105.785278)"><g><path d="M 33.59375 -11.921875 L 33.59375 -14.453125 L 27.75 -14.453125 L 27.75 -27.671875 L 51.296875 -27.671875 L 51.296875 -6 C 51.296875 -3.539062 50.8125 -1.519531 49.84375 0.0625 C 48.882812 1.65625 47.65625 2.828125 46.15625 3.578125 C 44.664062 4.328125 43.128906 4.722656 41.546875 4.765625 L 10.46875 4.765625 C 8.832031 4.765625 7.300781 4.316406 5.875 3.421875 C 4.457031 2.535156 3.316406 1.375 2.453125 -0.0625 C 1.585938 -1.507812 1.15625 -3.054688 1.15625 -4.703125 L 1.15625 -45.953125 C 1.15625 -47.785156 1.578125 -49.457031 2.421875 -50.96875 C 3.265625 -52.488281 4.429688 -53.71875 5.921875 -54.65625 C 7.421875 -55.59375 9.128906 -56.0625 11.046875 -56.0625 L 41.765625 -56.0625 C 43.691406 -56.0625 45.363281 -55.59375 46.78125 -54.65625 C 48.195312 -53.71875 49.300781 -52.535156 50.09375 -51.109375 C 50.894531 -49.691406 51.296875 -48.238281 51.296875 -46.75 L 51.296875 -30.34375 L 27.75 -30.34375 L 27.75 -40.3125 L 24.921875 -40.3125 L 24.921875 -11.921875 Z M 33.59375 -11.921875 "/></g></g></g><g clip-path="url(#70821ee667)"><path stroke-linecap="butt" transform="matrix(0.938808, -0.111071, 0.111071, 0.938808, 58.479474, 114.128006)" fill="none" stroke-linejoin="miter" d="M 24.908848 47.365141 L 11.203318 47.362203 C 9.484816 47.362768 7.839921 47.022529 6.268634 46.341486 C 4.711113 45.64959 3.429019 44.599158 2.435634 43.183441 C 1.451911 41.756385 0.959906 39.971418 0.960105 37.824437 L 0.958939 24.118421 C 0.958954 20.777251 2.030343 18.087105 4.182285 16.040747 C 6.329637 13.998006 9.287895 12.979077 13.057544 12.979855 L 35.280754 12.979436 C 37.681928 12.976422 39.750134 13.466604 41.486829 14.437672 C 43.228114 15.405123 44.577665 16.659096 45.542234 18.212873 C 46.508745 19.750236 46.990913 21.4425 46.989224 23.285562 L 46.989622 30.421486 L 25.032915 30.420148 L 25.034804 24.953 L 22.66284 24.955309 L 22.662243 32.873358 L 36.301632 32.872631 C 38.407094 32.872078 40.260685 33.382638 41.867481 34.39659 C 43.479352 35.402821 44.735229 36.674837 45.638733 38.217228 C 46.538618 39.755031 46.9873 41.343473 46.989367 42.978936 L 46.987356 55.269883 C 46.988983 58.315826 46.418443 60.711554 45.276707 62.448862 C 44.143178 64.187141 42.679757 65.407891 40.874134 66.109656 C 39.075261 66.824702 37.208052 67.202955 35.2812 67.241283 L 11.642921 67.244879 C 9.508736 67.242033 7.632419 66.782875 6.019046 65.859684 C 4.405673 64.936493 3.158002 63.665448 2.276519 62.042444 C 1.400595 60.407616 0.957878 58.557746 0.956574 56.493804 L 0.957967 49.940612 L 22.473885 49.939731 L 22.470679 55.207002 L 24.909269 55.204253 Z M 24.908848 47.365141 " stroke="#333333" stroke-width="7.644911" stroke-opacity="1" stroke-miterlimit="4"/></g><g clip-path="url(#1efd4b964e)"><path stroke-linecap="butt" transform="matrix(0.943212, -0.0636332, 0.0636332, 0.943212, 105.215738, 108.663762)" fill="none" stroke-linejoin="miter" d="M 22.080331 52.375775 L 24.594197 52.375572 L 24.593099 40.605538 L 45.573675 40.604609 L 45.574702 57.654969 C 45.575985 59.845875 45.14385 61.647236 44.286263 63.06373 C 43.424831 64.475824 42.331713 65.516124 40.99922 66.175828 C 39.670294 66.844055 38.300109 67.203033 36.8851 67.244238 L 9.207848 67.244796 C 7.70052 67.2425 6.323516 66.843135 5.076558 66.050824 C 3.84169 65.26347 2.843124 64.227007 2.089384 62.937867 C 1.335643 61.648727 0.960175 60.277429 0.959134 58.819574 L 0.958366 22.060139 C 0.956639 20.428297 1.326688 18.933355 2.059711 17.583003 C 2.792734 16.232651 3.822948 15.142552 5.154477 14.312984 C 6.486562 13.47517 8.005768 13.055842 9.712097 13.054998 L 37.008116 13.05771 C 38.768317 13.056359 40.284657 13.477549 41.549448 14.312477 C 42.818638 15.14356 43.80428 16.187435 44.505538 17.456468 C 45.219165 18.726336 45.574625 20.025879 45.576043 21.355376 L 45.572997 38.343339 L 24.592421 38.344269 L 24.594774 27.075581 L 22.080909 27.075783 Z M 22.080331 52.375775 " stroke="#333333" stroke-width="7.644911" stroke-opacity="1" stroke-miterlimit="4"/></g><g clip-path="url(#5abaa44797)"><path stroke-linecap="butt" transform="matrix(0.945207, -0.0167505, 0.0167505, 0.945207, 150.682076, 105.640001)" fill="none" stroke-linejoin="miter" d="M 21.956219 29.983962 L 24.453485 29.920767 L 24.454813 13.055276 L 45.638928 13.058749 L 45.637496 67.242442 L 24.453307 67.243101 L 24.451267 50.567655 L 21.9551 50.568879 L 21.953008 67.244252 L 1.037507 67.241407 L 1.038939 13.057713 L 21.954514 13.056427 Z M 21.956219 29.983962 " stroke="#333333" stroke-width="7.644911" stroke-opacity="1" stroke-miterlimit="4"/></g><g clip-path="url(#b43ea23745)"><path stroke-linecap="butt" transform="matrix(0.944877, 0.0300757, -0.0300757, 0.944877, 196.360245, 104.879097)" fill="none" stroke-linejoin="miter" d="M 1.036255 58.820371 L 1.03611 22.05964 C 1.037874 20.426601 1.407937 18.934801 2.15456 17.583978 C 2.909442 16.232892 3.941317 15.141709 5.250314 14.314557 C 6.558917 13.475016 8.071038 13.054812 9.790938 13.057945 L 36.819904 13.057505 C 38.580972 13.055193 40.094999 13.474159 41.361985 14.314401 C 42.628577 15.142254 43.616906 16.189804 44.318713 17.457316 C 45.02878 18.724565 45.384328 20.023768 45.385358 21.354927 L 45.387431 57.656708 C 45.386894 59.847817 44.95635 61.647468 44.09606 63.063921 C 43.239769 64.476112 42.144237 65.515578 40.81333 66.173928 C 39.482817 66.844667 38.109274 67.202581 36.696699 67.24341 L 9.270864 67.24408 C 7.815675 67.244924 6.455245 66.845874 5.185444 66.047063 C 3.920298 65.26464 2.907452 64.226138 2.151167 62.935555 C 1.407403 61.648709 1.037099 60.27556 1.036255 58.820371 Z M 29.355155 27.781122 L 14.868634 52.832072 L 17.382142 52.830615 L 31.868794 27.783795 Z M 29.355155 27.781122 " stroke="#333333" stroke-width="7.644911" stroke-opacity="1" stroke-miterlimit="4"/></g><g clip-path="url(#9abcebf93e)"><path stroke-linecap="butt" transform="matrix(0.942242, 0.0766657, -0.0766657, 0.942242, 241.709848, 106.367029)" fill="none" stroke-linejoin="miter" d="M 1.035043 58.818026 L 1.037579 22.062063 C 1.03734 20.428678 1.409144 18.934994 2.152991 17.581013 C 2.90541 16.230481 3.940411 15.143009 5.249424 14.315149 C 6.557431 13.474934 8.073933 13.057199 9.790358 13.058496 L 36.820139 13.05643 C 38.582201 13.058159 40.096044 13.473926 41.362338 14.311967 C 42.632081 15.141436 43.616927 16.188933 44.317212 17.458578 C 45.029518 18.723098 45.38419 20.025009 45.384677 21.355739 L 45.386465 57.655323 C 45.386639 59.848383 44.956928 61.649414 44.097668 63.062534 C 43.238408 64.475654 42.141392 65.514278 40.814522 66.173616 C 39.48042 66.845981 38.108161 67.202231 36.693625 67.242703 L 9.27403 67.24332 C 7.814624 67.241839 6.455844 66.846622 5.184664 66.050435 C 3.918273 65.26215 2.905268 64.225235 2.153886 62.93902 C 1.410405 61.648016 1.037681 60.277097 1.035043 58.818026 Z M 29.358075 27.78383 L 14.867375 52.833797 L 17.379565 52.832531 L 31.870265 27.782564 Z M 29.358075 27.78383 " stroke="#333333" stroke-width="7.644911" stroke-opacity="1" stroke-miterlimit="4"/></g><g clip-path="url(#d98e68921e)"><path stroke-linecap="butt" transform="matrix(0.938024, 0.117509, -0.117509, 0.938024, 286.701501, 110.17669)" fill="none" stroke-linejoin="miter" d="M 1.037816 13.057483 L 21.688657 13.056546 L 21.686781 49.940334 L 34.242419 49.941573 L 34.244507 67.244141 L 1.038027 67.24384 Z M 1.037816 13.057483 " stroke="#333333" stroke-width="7.644911" stroke-opacity="1" stroke-miterlimit="4"/></g><g fill="#ffffff" fill-opacity="1"><g transform="translate(65.476955, 173.27291)"><g><path d="M 21.65625 -17.4375 L 8.78125 -15.921875 C 7.164062 -15.722656 5.582031 -15.863281 4.03125 -16.34375 C 2.488281 -16.820312 1.175781 -17.671875 0.09375 -18.890625 C -0.988281 -20.109375 -1.648438 -21.722656 -1.890625 -23.734375 L -3.40625 -36.625 C -3.78125 -39.757812 -3.070312 -42.398438 -1.28125 -44.546875 C 0.507812 -46.703125 3.179688 -47.988281 6.734375 -48.40625 L 27.5625 -50.875 C 29.832031 -51.132812 31.832031 -50.90625 33.5625 -50.1875 C 35.300781 -49.476562 36.707031 -48.453125 37.78125 -47.109375 C 38.851562 -45.773438 39.492188 -44.238281 39.703125 -42.5 L 40.484375 -35.796875 L 19.890625 -33.359375 L 19.296875 -38.5 L 17.0625 -38.234375 L 17.9375 -30.796875 L 30.75 -32.3125 C 32.71875 -32.550781 34.507812 -32.285156 36.125 -31.515625 C 37.75 -30.753906 39.066406 -29.695312 40.078125 -28.34375 C 41.097656 -26.988281 41.703125 -25.546875 41.890625 -24.015625 L 43.25 -12.46875 C 43.59375 -9.613281 43.328125 -7.304688 42.453125 -5.546875 C 41.585938 -3.785156 40.347656 -2.472656 38.734375 -1.609375 C 37.117188 -0.742188 35.398438 -0.1875 33.578125 0.0625 L 11.40625 2.6875 C 9.382812 2.925781 7.566406 2.703125 5.953125 2.015625 C 4.347656 1.328125 3.039062 0.269531 2.03125 -1.15625 C 1.03125 -2.59375 0.414062 -4.273438 0.1875 -6.203125 L -0.546875 -12.390625 L 19.640625 -14.78125 L 20.234375 -9.8125 L 22.53125 -10.078125 Z M 21.65625 -17.4375 "/></g></g></g><g fill="#ffffff" fill-opacity="1"><g transform="translate(109.224629, 168.08609)"><g><path d="M 20.15625 -11.4375 L 22.53125 -11.59375 L 21.78125 -22.6875 L 41.578125 -24.03125 L 42.65625 -7.9375 C 42.800781 -5.882812 42.507812 -4.160156 41.78125 -2.765625 C 41.0625 -1.367188 40.09375 -0.316406 38.875 0.390625 C 37.664062 1.097656 36.394531 1.519531 35.0625 1.65625 L 8.953125 3.421875 C 7.535156 3.515625 6.21875 3.226562 5 2.5625 C 3.78125 1.894531 2.769531 0.976562 1.96875 -0.1875 C 1.175781 -1.363281 0.734375 -2.632812 0.640625 -4 L -1.703125 -38.671875 C -1.804688 -40.210938 -1.550781 -41.644531 -0.9375 -42.96875 C -0.332031 -44.289062 0.566406 -45.390625 1.765625 -46.265625 C 2.960938 -47.140625 4.375 -47.632812 6 -47.75 L 31.75 -49.484375 C 33.40625 -49.585938 34.851562 -49.285156 36.09375 -48.578125 C 37.34375 -47.867188 38.34375 -46.941406 39.09375 -45.796875 C 39.84375 -44.648438 40.257812 -43.445312 40.34375 -42.1875 L 41.4375 -26.171875 L 21.640625 -24.828125 L 20.921875 -35.4375 L 18.546875 -35.28125 Z M 20.15625 -11.4375 "/></g></g></g><g fill="#ffffff" fill-opacity="1"><g transform="translate(151.737358, 165.188058)"><g><path d="M 20.203125 -31.59375 L 22.578125 -31.6875 L 22.28125 -47.625 L 42.3125 -47.984375 L 43.234375 3.25 L 23.203125 3.609375 L 22.921875 -12.15625 L 20.546875 -12.125 L 20.828125 3.640625 L 1.046875 4 L 0.125 -47.234375 L 19.90625 -47.59375 Z M 20.203125 -31.59375 "/></g></g></g><g fill="#ffffff" fill-opacity="1"><g transform="translate(194.465474, 164.406351)"><g><path d="M 1.09375 -3.921875 L 2.203125 -38.65625 C 2.242188 -40.195312 2.640625 -41.597656 3.390625 -42.859375 C 4.148438 -44.117188 5.160156 -45.117188 6.421875 -45.859375 C 7.679688 -46.609375 9.125 -46.957031 10.75 -46.90625 L 36.296875 -46.09375 C 37.960938 -46.039062 39.378906 -45.601562 40.546875 -44.78125 C 41.710938 -43.957031 42.613281 -42.9375 43.25 -41.71875 C 43.882812 -40.5 44.179688 -39.257812 44.140625 -38 L 43.046875 -3.6875 C 42.984375 -1.625 42.523438 0.0625 41.671875 1.375 C 40.816406 2.6875 39.75 3.640625 38.46875 4.234375 C 37.195312 4.828125 35.890625 5.125 34.546875 5.125 L 8.640625 4.296875 C 7.253906 4.253906 5.972656 3.835938 4.796875 3.046875 C 3.628906 2.253906 2.707031 1.238281 2.03125 0 C 1.363281 -1.238281 1.050781 -2.546875 1.09375 -3.921875 Z M 28.796875 -32.40625 L 14.375 -9.15625 L 16.734375 -9.09375 L 31.171875 -32.328125 Z M 28.796875 -32.40625 "/></g></g></g><g fill="#ffffff" fill-opacity="1"><g transform="translate(236.879906, 165.728266)"><g><path d="M 1.296875 -3.859375 L 4.109375 -38.5 C 4.234375 -40.03125 4.703125 -41.40625 5.515625 -42.625 C 6.328125 -43.851562 7.378906 -44.8125 8.671875 -45.5 C 9.972656 -46.1875 11.429688 -46.460938 13.046875 -46.328125 L 38.53125 -44.25 C 40.1875 -44.113281 41.578125 -43.601562 42.703125 -42.71875 C 43.828125 -41.84375 44.675781 -40.773438 45.25 -39.515625 C 45.820312 -38.265625 46.054688 -37.015625 45.953125 -35.765625 L 43.171875 -1.546875 C 43.003906 0.503906 42.457031 2.164062 41.53125 3.4375 C 40.613281 4.707031 39.503906 5.601562 38.203125 6.125 C 36.898438 6.644531 35.582031 6.875 34.25 6.8125 L 8.40625 4.703125 C 7.03125 4.597656 5.773438 4.125 4.640625 3.28125 C 3.515625 2.4375 2.644531 1.375 2.03125 0.09375 C 1.425781 -1.175781 1.179688 -2.492188 1.296875 -3.859375 Z M 30.359375 -30.9375 L 14.796875 -8.4375 L 17.171875 -8.25 L 32.734375 -30.75 Z M 30.359375 -30.9375 "/></g></g></g><g fill="#ffffff" fill-opacity="1"><g transform="translate(279.298432, 169.272199)"><g><path d="M 6.84375 -46.75 L 26.234375 -44.328125 L 21.890625 -9.71875 L 33.65625 -8.234375 L 31.625 8.015625 L 0.46875 4.109375 Z M 6.84375 -46.75 "/></g></g></g></svg>