<svg xmlns="http://www.w3.org/2000/svg" xmlns:xlink="http://www.w3.org/1999/xlink" width="500" zoomAndPan="magnify" viewBox="0 0 375 374.999991" height="500" preserveAspectRatio="xMidYMid meet" version="1.0"><defs><g/></defs><g fill="#171616" fill-opacity="1"><g transform="translate(51.913064, 202.366541)"><g><path d="M 1.21875 -48.65625 L 33 -48.65625 L 33 -40.21875 C 33 -37.53125 33.648438 -35.390625 34.953125 -33.796875 C 36.265625 -32.210938 37.875 -31.15625 39.78125 -30.625 C 41.695312 -30.09375 43.632812 -30.109375 45.59375 -30.671875 C 47.550781 -31.242188 49.179688 -32.34375 50.484375 -33.96875 C 51.785156 -35.601562 52.4375 -37.765625 52.4375 -40.453125 L 52.4375 -85.5625 L 84.21875 -85.5625 L 84.21875 -40.09375 C 84.21875 -31.78125 82.503906 -24.425781 79.078125 -18.03125 C 75.660156 -11.632812 70.832031 -6.625 64.59375 -3 C 58.363281 0.625 51.09375 2.4375 42.78125 2.4375 C 34.550781 2.4375 27.316406 0.828125 21.078125 -2.390625 C 14.847656 -5.609375 9.976562 -10.414062 6.46875 -16.8125 C 2.96875 -23.207031 1.21875 -31.128906 1.21875 -40.578125 Z M 1.21875 -48.65625 "/></g></g></g><path stroke-linecap="butt" transform="matrix(0.75, 0, 0, 0.75, 121.048494, 85.503671)" fill="none" stroke-linejoin="miter" d="M 46.643678 126.375322 C 40.38326 126.375322 34.503052 125.22428 28.997843 122.927405 C 23.513468 120.63053 18.695759 117.489904 14.544717 113.510738 C 10.388467 109.515946 7.12805 104.849279 4.75305 99.521153 C 2.37805 94.172195 1.185341 88.484694 1.185341 82.458652 C 1.185341 76.375318 2.37805 70.687818 4.75305 65.396151 C 7.12805 60.083651 10.388467 55.4274 14.544717 51.432608 C 18.695759 47.432608 23.513468 44.297191 28.997843 42.015941 C 34.503052 39.719066 40.38326 38.568024 46.643678 38.568024 C 52.878053 38.568024 58.753053 39.719066 64.253054 42.015941 C 69.758262 44.297191 74.586388 47.432608 78.73743 51.432608 C 82.89368 55.4274 86.128055 60.083651 88.445764 65.396151 C 90.779097 70.687818 91.950972 76.375318 91.950972 82.458652 C 91.950972 88.484694 90.779097 94.172195 88.445764 99.521153 C 86.128055 104.849279 82.89368 109.515946 78.73743 113.510738 C 74.586388 117.489904 69.758262 120.63053 64.253054 122.927405 C 58.753053 125.22428 52.878053 126.375322 46.643678 126.375322 Z M 34.763468 82.458652 C 34.763468 85.703444 35.91451 88.474278 38.211385 90.771153 C 40.50826 93.068028 43.279094 94.21907 46.523886 94.21907 C 49.768678 94.21907 52.549928 93.068028 54.867636 90.771153 C 57.206178 88.474278 58.372845 85.703444 58.372845 82.458652 C 58.372845 79.21386 57.206178 76.43261 54.867636 74.114902 C 52.549928 71.77636 49.768678 70.609693 46.523886 70.609693 C 43.279094 70.609693 40.50826 71.77636 38.211385 74.114902 C 35.91451 76.43261 34.763468 79.21386 34.763468 82.458652 Z M 34.763468 82.458652 " stroke="#fff9f9" stroke-width="8.900025" stroke-opacity="1" stroke-miterlimit="4"/><g fill="#171616" fill-opacity="1"><g transform="translate(121.048494, 178.503665)"><g><path d="M 34.984375 1.78125 C 30.296875 1.78125 25.890625 0.921875 21.765625 -0.796875 C 17.640625 -2.515625 14.019531 -4.875 10.90625 -7.875 C 7.789062 -10.875 5.34375 -14.375 3.5625 -18.375 C 1.78125 -22.382812 0.890625 -26.644531 0.890625 -31.15625 C 0.890625 -35.71875 1.78125 -39.984375 3.5625 -43.953125 C 5.34375 -47.929688 7.789062 -51.421875 10.90625 -54.421875 C 14.019531 -57.421875 17.640625 -59.78125 21.765625 -61.5 C 25.890625 -63.21875 30.296875 -64.078125 34.984375 -64.078125 C 39.671875 -64.078125 44.070312 -63.21875 48.1875 -61.5 C 52.3125 -59.78125 55.929688 -57.421875 59.046875 -54.421875 C 62.160156 -51.421875 64.59375 -47.929688 66.34375 -43.953125 C 68.09375 -39.984375 68.96875 -35.71875 68.96875 -31.15625 C 68.96875 -26.644531 68.09375 -22.382812 66.34375 -18.375 C 64.59375 -14.375 62.160156 -10.875 59.046875 -7.875 C 55.929688 -4.875 52.3125 -2.515625 48.1875 -0.796875 C 44.070312 0.921875 39.671875 1.78125 34.984375 1.78125 Z M 26.078125 -31.15625 C 26.078125 -28.71875 26.9375 -26.640625 28.65625 -24.921875 C 30.375 -23.203125 32.453125 -22.34375 34.890625 -22.34375 C 37.316406 -22.34375 39.40625 -23.203125 41.15625 -24.921875 C 42.90625 -26.640625 43.78125 -28.71875 43.78125 -31.15625 C 43.78125 -33.582031 42.90625 -35.671875 41.15625 -37.421875 C 39.40625 -39.171875 37.316406 -40.046875 34.890625 -40.046875 C 32.453125 -40.046875 30.375 -39.171875 28.65625 -37.421875 C 26.9375 -35.671875 26.078125 -33.582031 26.078125 -31.15625 Z M 26.078125 -31.15625 "/></g></g></g><path stroke-linecap="butt" transform="matrix(0.75, 0, 0, 0.75, 169.249006, 111.619322)" fill="none" stroke-linejoin="miter" d="M 90.532581 124.00237 L 53.506537 124.00237 L 32.157577 91.262785 L 32.157577 124.00237 L 1.303409 124.00237 L 1.303409 40.945073 L 32.157577 40.945073 L 32.157577 72.49195 L 50.782578 40.945073 L 87.688831 40.945073 L 61.704454 82.455492 Z M 90.532581 124.00237 " stroke="#fff9f9" stroke-width="8.900025" stroke-opacity="1" stroke-miterlimit="4"/><g fill="#171616" fill-opacity="1"><g transform="translate(169.249006, 204.619316)"><g><path d="M 67.90625 0 L 40.140625 0 L 24.125 -24.5625 L 24.125 0 L 0.984375 0 L 0.984375 -62.296875 L 24.125 -62.296875 L 24.125 -38.625 L 38.09375 -62.296875 L 65.765625 -62.296875 L 46.28125 -31.15625 Z M 67.90625 0 "/></g></g></g><g fill="#171616" fill-opacity="1"><g transform="translate(246.191825, 209.396595)"><g><path d="M 52.15625 -62.296875 L 76.984375 0 L 52.15625 0 L 38.1875 -38.71875 L 31.5 -20.734375 L 42.984375 -20.734375 L 50.46875 0 L -0.171875 0 L 24.203125 -62.296875 Z M 52.15625 -62.296875 "/></g></g></g><path stroke-linecap="butt" transform="matrix(0.75, 0, 0, 0.75, 218.454835, 143.660177)" fill="none" stroke-linejoin="miter" d="M 39.888348 79.843728 L 39.888348 76.848936 L 32.940431 76.848936 L 32.940431 61.14581 L 60.893557 61.14581 L 60.893557 86.880186 C 60.893557 89.796853 60.320641 92.197895 59.174807 94.083312 C 58.028974 95.968729 56.57064 97.348937 54.799807 98.229145 C 53.028974 99.124979 51.19564 99.598937 49.315432 99.656229 L 12.440429 99.656229 C 10.497721 99.656229 8.685221 99.124979 6.992512 98.062479 C 5.305012 97.015604 3.945637 95.635395 2.909179 93.916645 C 1.893554 92.197895 1.383137 90.36977 1.383137 88.43227 L 1.383137 39.4531 C 1.383137 37.276016 1.877929 35.286433 2.867512 33.48435 C 3.87272 31.682266 5.263345 30.229141 7.034179 29.130183 C 8.810221 28.010391 10.841471 27.453099 13.127929 27.453099 L 49.565432 27.453099 C 51.85189 27.453099 53.841474 28.010391 55.534182 29.130183 C 57.221682 30.229141 58.534182 31.624974 59.471682 33.317683 C 60.419599 35.005183 60.893557 36.73435 60.893557 38.510392 L 60.893557 57.984351 L 32.940431 57.984351 L 32.940431 46.130184 L 29.586264 46.130184 L 29.586264 79.843728 Z M 39.888348 79.843728 " stroke="#fff9f9" stroke-width="6.433208" stroke-opacity="1" stroke-miterlimit="4"/><g fill="#171616" fill-opacity="1"><g transform="translate(218.454835, 214.160172)"><g><path d="M 29.90625 -10.609375 L 29.90625 -12.859375 L 24.703125 -12.859375 L 24.703125 -24.640625 L 45.671875 -24.640625 L 45.671875 -5.34375 C 45.671875 -3.15625 45.238281 -1.351562 44.375 0.0625 C 43.519531 1.476562 42.425781 2.519531 41.09375 3.1875 C 39.769531 3.851562 38.398438 4.207031 36.984375 4.25 L 9.328125 4.25 C 7.867188 4.25 6.503906 3.847656 5.234375 3.046875 C 3.972656 2.253906 2.957031 1.21875 2.1875 -0.0625 C 1.414062 -1.351562 1.03125 -2.726562 1.03125 -4.1875 L 1.03125 -40.90625 C 1.03125 -42.539062 1.40625 -44.03125 2.15625 -45.375 C 2.90625 -46.726562 3.941406 -47.820312 5.265625 -48.65625 C 6.597656 -49.5 8.125 -49.921875 9.84375 -49.921875 L 37.1875 -49.921875 C 38.894531 -49.921875 40.378906 -49.5 41.640625 -48.65625 C 42.910156 -47.820312 43.898438 -46.769531 44.609375 -45.5 C 45.316406 -44.238281 45.671875 -42.945312 45.671875 -41.625 L 45.671875 -27.015625 L 24.703125 -27.015625 L 24.703125 -35.890625 L 22.1875 -35.890625 L 22.1875 -10.609375 Z M 29.90625 -10.609375 "/></g></g></g><path stroke-linecap="butt" transform="matrix(0.835952, -0.0989022, 0.0989022, 0.835952, 81.313425, 221.588849)" fill="none" stroke-linejoin="miter" d="M 24.908784 47.363268 L 11.203423 47.363242 C 9.488729 47.361306 7.842031 47.021627 6.268482 46.340141 C 4.709848 45.651073 3.432581 44.598106 2.436681 43.181238 C 1.451088 41.756244 0.956417 39.97345 0.958366 37.824186 L 0.958392 24.118825 C 0.956513 20.777541 2.031823 18.087054 4.180258 16.042213 C 6.328693 13.997371 9.285684 12.978081 13.061539 12.976215 L 35.280461 12.978832 C 37.68239 12.977965 39.75082 13.465669 41.490904 14.437881 C 43.226925 15.40494 44.578067 16.662906 45.544331 18.211779 C 46.507077 19.750891 46.989065 21.443401 46.990297 23.289308 L 46.987798 30.419727 L 25.034821 30.420537 L 25.036773 24.953575 L 22.663039 24.953106 L 22.660565 32.873233 L 36.300319 32.874842 C 38.408109 32.871885 40.263712 33.381137 41.867676 34.397992 C 43.477883 35.401566 44.738197 36.676823 45.635336 38.217518 C 46.537083 39.758759 46.989592 41.344979 46.987708 42.980241 L 46.986983 55.269656 C 46.990952 58.316801 46.41791 60.711577 45.277617 62.450466 C 44.146542 64.190446 42.679916 65.409427 40.877197 66.112018 C 39.073387 66.823825 37.206359 67.201055 35.280721 67.244255 L 11.645854 67.242337 C 9.505806 67.241478 7.63038 66.781282 6.019576 65.861747 C 4.404708 64.937059 3.15822 63.663438 2.280111 62.040883 C 1.398484 60.408567 0.958619 58.557493 0.959971 56.492269 L 0.95938 49.940913 L 22.473179 49.939545 L 22.471629 55.205623 L 24.91097 55.204509 Z M 24.908784 47.363268 " stroke="#fff9f9" stroke-width="4.828365" stroke-opacity="1" stroke-miterlimit="4"/><path stroke-linecap="butt" transform="matrix(0.839873, -0.0566615, 0.0566615, 0.839873, 122.929259, 216.723281)" fill="none" stroke-linejoin="miter" d="M 22.080081 52.375448 L 24.596116 52.377755 L 24.594969 40.606001 L 45.575519 40.607537 L 45.574017 57.657996 C 45.575055 59.848686 45.146725 61.647631 44.28377 63.063779 C 43.425758 64.47561 42.332522 65.513444 40.999743 66.172339 C 39.670658 66.845437 38.297993 67.199327 36.885755 67.243581 L 9.207814 67.241356 C 7.700846 67.242012 6.322912 66.846735 5.074323 66.050897 C 3.838999 65.265256 2.844029 64.226072 2.089098 62.937976 C 1.334168 61.649879 0.957129 60.275653 0.957668 58.819927 L 0.958459 22.06314 C 0.95729 20.42591 1.323024 18.934359 2.060602 17.584168 C 2.793863 16.229036 3.825404 15.140529 5.155538 14.314019 C 6.486608 13.47362 8.003168 13.055022 9.709847 13.058538 L 37.011203 13.058611 C 38.769436 13.056304 40.285331 13.47484 41.549628 14.313597 C 42.81918 15.143406 43.804267 16.191225 44.504887 17.457054 C 45.219397 18.723819 45.573655 20.022093 45.57229 21.352186 L 45.574848 38.342456 L 24.594298 38.340919 L 24.596144 27.076326 L 22.08011 27.074019 Z M 22.080081 52.375448 " stroke="#fff9f9" stroke-width="4.828365" stroke-opacity="1" stroke-miterlimit="4"/><path stroke-linecap="butt" transform="matrix(0.84165, -0.0149153, 0.0149153, 0.84165, 163.414316, 214.030796)" fill="none" stroke-linejoin="miter" d="M 21.954888 29.98177 L 24.452949 29.919292 L 24.454723 13.057921 L 45.637072 13.057369 L 45.637542 67.24314 L 24.455193 67.243692 L 24.453677 50.56791 L 21.952045 50.569989 L 21.953643 67.241131 L 1.035839 67.24173 L 1.035369 13.05596 L 21.953173 13.05536 Z M 21.954888 29.98177 " stroke="#fff9f9" stroke-width="4.828365" stroke-opacity="1" stroke-miterlimit="4"/><path stroke-linecap="butt" transform="matrix(0.841356, 0.0267806, -0.0267806, 0.841356, 204.087999, 213.353261)" fill="none" stroke-linejoin="miter" d="M 1.038801 58.821697 L 1.038651 22.060008 C 1.037704 20.425772 1.408038 18.932931 2.154292 17.581337 C 2.905185 16.229595 3.938436 15.14279 5.249111 14.311795 C 6.559639 13.476161 8.073764 13.056542 9.791633 13.057576 L 36.821971 13.05611 C 38.581583 13.055814 40.0946 13.476577 41.360876 14.313761 C 42.631494 15.14152 43.616556 16.187295 44.316208 17.455724 C 45.029774 18.723709 45.386798 20.021615 45.387425 21.354078 L 45.386874 57.656153 C 45.386985 59.847551 44.956823 61.648721 44.096535 63.064302 C 43.236099 64.475244 42.140929 65.512949 40.810877 66.172777 C 39.481268 66.84652 38.109005 67.201267 36.694236 67.241657 L 9.273855 67.24161 C 7.816015 67.241585 6.452302 66.843927 5.187356 66.048486 C 3.918066 65.26247 2.905471 64.226857 2.154062 62.936862 C 1.40729 61.646719 1.038629 60.274899 1.038801 58.821697 Z M 29.356216 27.783927 L 14.864808 52.833465 L 17.381169 52.832296 L 31.872577 27.782758 Z M 29.356216 27.783927 " stroke="#fff9f9" stroke-width="4.828365" stroke-opacity="1" stroke-miterlimit="4"/><path stroke-linecap="butt" transform="matrix(0.83901, 0.0682663, -0.0682663, 0.83901, 244.469096, 214.678169)" fill="none" stroke-linejoin="miter" d="M 1.037402 58.817745 L 1.03565 22.06046 C 1.037689 20.426114 1.409789 18.933921 2.151952 17.583882 C 2.90799 16.232714 3.941368 15.142983 5.247461 14.315066 C 6.557427 13.477522 8.073522 13.056194 9.791498 13.056084 L 36.822836 13.054203 C 38.582815 13.055331 40.093023 13.47718 41.362334 14.314371 C 42.630892 15.142311 43.61462 16.18897 44.31852 17.458596 C 45.031294 18.722844 45.384057 20.025696 45.384932 21.352524 L 45.387181 57.658157 C 45.383674 59.846662 44.957783 61.650513 44.094881 63.06159 C 43.23698 64.476915 42.143584 65.51566 40.814316 66.173199 C 39.481553 66.844989 38.109323 67.203398 36.697252 67.243799 L 9.27014 67.245292 C 7.817304 67.242452 6.453487 66.845938 5.187563 66.050374 C 3.917766 65.264436 2.906663 64.22466 2.15463 62.935672 C 1.407598 61.650932 1.034938 60.275207 1.037402 58.817745 Z M 29.356805 27.782677 L 14.8669 52.831864 L 17.381048 52.832155 L 31.870953 27.782967 Z M 29.356805 27.782677 " stroke="#fff9f9" stroke-width="4.828365" stroke-opacity="1" stroke-miterlimit="4"/><path stroke-linecap="butt" transform="matrix(0.835254, 0.104635, -0.104635, 0.835254, 284.53147, 218.070454)" fill="none" stroke-linejoin="miter" d="M 1.036966 13.058279 L 21.689244 13.057333 L 21.689371 49.942611 L 34.241555 49.94154 L 34.243902 67.245111 L 1.038864 67.242522 Z M 1.036966 13.058279 " stroke="#fff9f9" stroke-width="4.828365" stroke-opacity="1" stroke-miterlimit="4"/><g fill="#171616" fill-opacity="1"><g transform="translate(87.544264, 274.253846)"><g><path d="M 19.28125 -15.546875 L 7.8125 -14.1875 C 6.382812 -14.019531 4.984375 -14.144531 3.609375 -14.5625 C 2.234375 -14.976562 1.0625 -15.726562 0.09375 -16.8125 C -0.875 -17.90625 -1.460938 -19.347656 -1.671875 -21.140625 L -3.03125 -32.59375 C -3.363281 -35.394531 -2.734375 -37.753906 -1.140625 -39.671875 C 0.441406 -41.585938 2.8125 -42.734375 5.96875 -43.109375 L 24.53125 -45.296875 C 26.539062 -45.535156 28.320312 -45.335938 29.875 -44.703125 C 31.4375 -44.066406 32.691406 -43.148438 33.640625 -41.953125 C 34.597656 -40.753906 35.171875 -39.382812 35.359375 -37.84375 L 36.0625 -31.875 L 17.71875 -29.703125 L 17.171875 -34.28125 L 15.1875 -34.046875 L 15.96875 -27.421875 L 27.359375 -28.78125 C 29.117188 -28.988281 30.71875 -28.75 32.15625 -28.0625 C 33.601562 -27.375 34.78125 -26.425781 35.6875 -25.21875 C 36.601562 -24.019531 37.140625 -22.742188 37.296875 -21.390625 L 38.515625 -11.09375 C 38.816406 -8.550781 38.578125 -6.5 37.796875 -4.9375 C 37.023438 -3.375 35.921875 -2.207031 34.484375 -1.4375 C 33.046875 -0.675781 31.519531 -0.175781 29.90625 0.0625 L 10.171875 2.390625 C 8.367188 2.609375 6.75 2.410156 5.3125 1.796875 C 3.875 1.179688 2.707031 0.238281 1.8125 -1.03125 C 0.914062 -2.3125 0.367188 -3.8125 0.171875 -5.53125 L -0.484375 -11.015625 L 17.484375 -13.140625 L 18.015625 -8.734375 L 20.0625 -8.984375 Z M 19.28125 -15.546875 "/></g></g></g><g fill="#171616" fill-opacity="1"><g transform="translate(126.498936, 269.635308)"><g><path d="M 17.953125 -10.171875 L 20.0625 -10.3125 L 19.390625 -20.203125 L 37 -21.390625 L 37.96875 -7.0625 C 38.09375 -5.226562 37.835938 -3.691406 37.203125 -2.453125 C 36.566406 -1.210938 35.707031 -0.28125 34.625 0.34375 C 33.539062 0.976562 32.398438 1.351562 31.203125 1.46875 L 7.96875 3.046875 C 6.707031 3.128906 5.53125 2.875 4.4375 2.28125 C 3.351562 1.6875 2.457031 0.867188 1.75 -0.171875 C 1.050781 -1.210938 0.660156 -2.335938 0.578125 -3.546875 L -1.5 -34.4375 C -1.59375 -35.800781 -1.367188 -37.070312 -0.828125 -38.25 C -0.296875 -39.425781 0.5 -40.40625 1.5625 -41.1875 C 2.632812 -41.96875 3.894531 -42.40625 5.34375 -42.5 L 28.25 -44.046875 C 29.726562 -44.148438 31.023438 -43.882812 32.140625 -43.25 C 33.253906 -42.625 34.140625 -41.796875 34.796875 -40.765625 C 35.460938 -39.742188 35.832031 -38.675781 35.90625 -37.5625 L 36.875 -23.28125 L 19.265625 -22.09375 L 18.625 -31.5625 L 16.515625 -31.421875 Z M 17.953125 -10.171875 "/></g></g></g><g fill="#171616" fill-opacity="1"><g transform="translate(164.353981, 267.054771)"><g><path d="M 17.984375 -28.125 L 20.09375 -28.21875 L 19.84375 -42.40625 L 37.671875 -42.734375 L 38.484375 2.890625 L 20.65625 3.21875 L 20.40625 -10.8125 L 18.296875 -10.78125 L 18.546875 3.25 L 0.921875 3.5625 L 0.109375 -42.0625 L 17.734375 -42.375 Z M 17.984375 -28.125 "/></g></g></g><g fill="#171616" fill-opacity="1"><g transform="translate(202.400819, 266.358716)"><g><path d="M 0.96875 -3.484375 L 1.953125 -34.421875 C 1.992188 -35.785156 2.347656 -37.023438 3.015625 -38.140625 C 3.691406 -39.265625 4.59375 -40.160156 5.71875 -40.828125 C 6.84375 -41.503906 8.128906 -41.816406 9.578125 -41.765625 L 32.328125 -41.046875 C 33.804688 -40.992188 35.0625 -40.597656 36.09375 -39.859375 C 37.132812 -39.128906 37.9375 -38.21875 38.5 -37.125 C 39.070312 -36.039062 39.335938 -34.941406 39.296875 -33.828125 L 38.328125 -3.28125 C 38.273438 -1.4375 37.863281 0.0664062 37.09375 1.234375 C 36.332031 2.398438 35.382812 3.242188 34.25 3.765625 C 33.113281 4.285156 31.953125 4.550781 30.765625 4.5625 L 7.6875 3.828125 C 6.457031 3.785156 5.320312 3.414062 4.28125 2.71875 C 3.238281 2.019531 2.414062 1.113281 1.8125 0 C 1.207031 -1.101562 0.925781 -2.265625 0.96875 -3.484375 Z M 25.625 -28.84375 L 12.78125 -8.171875 L 14.890625 -8.09375 L 27.75 -28.765625 Z M 25.625 -28.84375 "/></g></g></g><g fill="#171616" fill-opacity="1"><g transform="translate(240.168322, 267.53579)"><g><path d="M 1.140625 -3.4375 L 3.65625 -34.296875 C 3.757812 -35.648438 4.171875 -36.867188 4.890625 -37.953125 C 5.617188 -39.046875 6.5625 -39.894531 7.71875 -40.5 C 8.875 -41.113281 10.171875 -41.359375 11.609375 -41.234375 L 34.296875 -39.390625 C 35.773438 -39.273438 37.015625 -38.820312 38.015625 -38.03125 C 39.015625 -37.25 39.769531 -36.300781 40.28125 -35.1875 C 40.800781 -34.070312 41.015625 -32.960938 40.921875 -31.859375 L 38.4375 -1.390625 C 38.289062 0.441406 37.804688 1.925781 36.984375 3.0625 C 36.160156 4.195312 35.171875 4.992188 34.015625 5.453125 C 32.859375 5.921875 31.679688 6.125 30.484375 6.0625 L 7.46875 4.1875 C 6.25 4.09375 5.132812 3.671875 4.125 2.921875 C 3.125 2.171875 2.351562 1.222656 1.8125 0.078125 C 1.269531 -1.054688 1.046875 -2.226562 1.140625 -3.4375 Z M 27.03125 -27.546875 L 13.15625 -7.515625 L 15.265625 -7.34375 L 29.140625 -27.375 Z M 27.03125 -27.546875 "/></g></g></g><g fill="#171616" fill-opacity="1"><g transform="translate(277.939481, 270.691464)"><g><path d="M 6.078125 -41.609375 L 23.34375 -39.453125 L 19.5 -8.65625 L 29.984375 -7.34375 L 28.171875 7.125 L 0.421875 3.65625 Z M 6.078125 -41.609375 "/></g></g></g></svg>